<svg xmlns="http://www.w3.org/2000/svg" width="200" height="200" viewBox="0 0 200 200" version="1.1">
    <path d="M 84.250 33.293 C 75.313 37.791, 68 41.719, 68 42.022 C 68 42.325, 72.948 45.014, 78.995 47.997 L 89.989 53.422 95.495 50.722 L 101 48.022 106.391 50.666 L 111.782 53.310 122.641 48.573 C 132.934 44.083, 136.668 42, 134.421 42 C 133.882 42, 126.122 38.175, 117.175 33.500 C 108.228 28.825, 100.816 25.026, 100.704 25.057 C 100.592 25.089, 93.188 28.795, 84.250 33.293" stroke="none" fill="#05a3c9" fill-rule="evenodd"/>
    <path d="M 44.250 53.784 L 35 58.450 35 78.725 C 35 94.311, 35.289 98.986, 36.250 98.939 C 36.938 98.905, 41.325 97.168, 46 95.078 L 54.500 91.279 55.500 80.291 L 56.500 69.303 67.286 75.194 L 78.072 81.085 88.536 76.414 C 94.291 73.845, 99 71.459, 99 71.111 C 99 70.255, 56.314 48.985, 54.744 49.059 C 54.060 49.091, 49.337 51.217, 44.250 53.784" stroke="none" fill="#ebc72b" fill-rule="evenodd"/>
    <path d="M 136.750 54.778 C 130.838 57.356, 126 59.806, 126 60.221 C 126 60.635, 129.117 62.544, 132.926 64.463 C 136.735 66.381, 140.070 68.304, 140.336 68.735 C 140.603 69.167, 134.899 72.090, 127.661 75.231 C 120.422 78.373, 96.725 88.820, 75 98.448 L 35.500 115.953 35.500 128.188 L 35.500 140.424 43 144.146 C 47.125 146.193, 51.210 147.898, 52.077 147.934 C 53.299 147.985, 73.379 139.618, 74.812 138.461 C 74.984 138.322, 71.693 136.315, 67.500 134 C 63.307 131.685, 60.016 129.669, 60.188 129.519 C 60.359 129.369, 77.600 121.719, 98.500 112.520 C 119.400 103.320, 143.137 92.859, 151.250 89.273 L 166 82.752 166 70.387 L 166 58.022 158.022 54.011 C 153.634 51.805, 149.472 50.020, 148.772 50.045 C 148.072 50.069, 142.662 52.199, 136.750 54.778" stroke="none" fill="#05a3c9" fill-rule="evenodd"/>
    <path d="M 155 103.054 L 146.500 106.913 146.217 118.008 L 145.934 129.102 134.626 123.234 L 123.318 117.366 112.576 122.057 L 101.833 126.747 123.477 137.874 C 135.382 143.993, 145.778 149, 146.581 149 C 147.383 149, 152.081 146.970, 157.020 144.490 L 166 139.980 166 119.490 C 166 103.713, 165.713 99.022, 164.750 99.098 C 164.063 99.151, 159.675 100.932, 155 103.054" stroke="none" fill="#2e9a35" fill-rule="evenodd"/>
    <path d="M 78.250 150.767 C 72.612 153.294, 68 155.629, 68 155.956 C 68 157.099, 99.575 172.228, 101.204 171.866 C 103.585 171.336, 134.931 156.596, 134.968 155.988 C 135.013 155.273, 115.776 145.983, 114.270 145.992 C 113.593 145.997, 110.184 147.173, 106.695 148.606 L 100.350 151.211 95.208 148.606 C 92.380 147.173, 89.714 146.039, 89.283 146.086 C 88.852 146.134, 83.888 148.240, 78.250 150.767" stroke="none" fill="#05a3c9" fill-rule="evenodd"/>
</svg>
